<?xml version="1.0" standalone="no"?>
<!DOCTYPE svg PUBLIC "-//W3C//DTD SVG 20010904//EN"
 "http://www.w3.org/TR/2001/REC-SVG-20010904/DTD/svg10.dtd">
<svg version="1.0" xmlns="http://www.w3.org/2000/svg"
 width="860.000000pt" height="625.000000pt" viewBox="0 0 860.000000 625.000000"
 preserveAspectRatio="xMidYMid meet">
<metadata>
Created by potrace 1.16, written by Peter Selinger 2001-2019
</metadata>
<g transform="translate(0.000000,625.000000) scale(0.100000,-0.100000)"
fill="#000000" stroke="none">
<path d="M4283 5701 c-297 -146 -505 -294 -739 -526 -371 -368 -615 -792 -739
-1285 -72 -285 -90 -452 -81 -764 9 -324 5 -305 85 -368 36 -29 94 -79 127
-113 l62 -60 11 150 c6 83 20 201 31 264 20 107 20 125 9 296 -30 437 46 850
227 1246 155 339 398 659 679 896 112 94 310 230 428 293 73 39 87 50 69 50
-4 0 -80 -36 -169 -79z"/>
<path d="M4919 4341 c-187 -138 -373 -363 -478 -577 -28 -57 -46 -79 -109
-129 -77 -61 -339 -315 -406 -393 -21 -24 -39 -42 -41 -40 -9 8 17 198 41 307
27 122 80 284 120 365 23 48 23 49 3 26 -32 -37 -122 -222 -158 -324 -37 -104
-77 -296 -87 -411 -5 -66 -11 -86 -34 -115 -50 -65 -196 -284 -240 -363 -53
-93 -53 -92 -71 85 -18 190 0 455 41 597 5 19 8 37 5 39 -7 7 -73 -218 -92
-313 -21 -107 -25 -464 -6 -557 l12 -57 -49 -103 c-54 -115 -140 -334 -140
-359 0 -21 -46 -63 -63 -56 -7 3 -19 25 -26 48 -7 24 -28 76 -47 116 l-34 72
-57 -20 c-31 -10 -60 -19 -64 -19 -5 0 -31 44 -59 98 -55 107 -159 244 -230
301 l-45 36 46 -55 c25 -30 60 -77 78 -103 34 -50 115 -216 109 -222 -2 -2
-62 25 -133 61 -72 35 -134 64 -140 64 -5 1 -28 26 -50 57 -54 75 -153 174
-223 221 -80 55 -115 71 -67 31 94 -76 248 -250 234 -264 -3 -2 -41 7 -84 21
-44 13 -133 35 -197 48 -91 19 -132 33 -177 61 -90 54 -183 93 -274 115 -102
25 -155 25 -72 1 77 -23 165 -60 238 -103 l59 -33 -189 -6 c-136 -5 -217 -12
-293 -28 -57 -12 -107 -25 -110 -28 -3 -3 10 -3 27 0 121 23 540 14 567 -13
14 -14 -230 -128 -334 -155 l-95 -25 70 5 c122 8 321 78 416 145 l30 22 112
-27 c116 -29 276 -81 290 -95 13 -11 -175 -133 -268 -173 -101 -44 -150 -60
-250 -83 -97 -22 -75 -30 41 -14 176 23 324 81 477 186 l78 54 91 -46 c98 -49
168 -92 168 -104 0 -3 -71 -31 -159 -60 l-158 -54 -32 27 c-47 39 -100 38
-135 -4 -14 -17 -26 -36 -26 -42 0 -7 10 3 21 21 38 58 99 57 141 -3 29 -43
36 -91 17 -128 -39 -75 -107 -91 -154 -36 -14 18 -29 45 -32 60 -3 16 -9 29
-13 29 -4 0 -166 -54 -360 -120 -193 -66 -358 -120 -366 -120 -8 0 -71 34
-142 77 -260 156 -386 206 -522 206 -67 1 -94 -4 -130 -21 -25 -12 -36 -20
-25 -16 79 23 128 28 192 16 143 -24 253 -83 535 -283 218 -155 338 -229 433
-265 276 -103 595 -82 854 57 130 70 265 183 338 282 19 26 39 47 43 45 5 -2
41 -52 80 -112 324 -492 817 -880 1374 -1081 309 -111 619 -165 951 -165 635
0 1222 203 1735 600 123 95 345 317 448 447 397 502 603 1094 604 1733 0 297
-46 595 -131 845 -23 66 -39 109 -36 95 80 -395 90 -479 82 -749 -11 -401 -98
-738 -282 -1101 -122 -238 -272 -444 -470 -643 -914 -917 -2373 -1013 -3404
-223 -108 84 -317 281 -286 271 131 -43 367 -69 555 -62 172 7 295 27 445 72
296 90 516 222 730 439 176 179 288 355 450 711 172 377 209 455 272 575 166
317 352 513 550 579 34 12 100 25 145 30 l83 8 -76 2 c-281 5 -522 -182 -768
-594 -57 -95 -112 -196 -277 -510 -81 -154 -76 -150 -224 -211 -36 -14 -104
-46 -152 -70 -48 -24 -92 -44 -98 -44 -6 0 -56 -22 -112 -49 -92 -46 -103 -49
-122 -35 -11 7 -39 14 -62 14 -34 0 -49 -6 -73 -31 -30 -30 -41 -59 -21 -59 6
0 10 6 10 14 0 24 51 66 82 66 47 0 108 -72 108 -128 0 -46 -32 -117 -58 -131
-29 -16 -74 -14 -100 5 -28 19 -62 85 -62 120 0 17 -4 24 -12 21 -7 -3 -51
-22 -96 -41 l-84 -36 -25 20 c-35 28 -84 26 -117 -5 -14 -13 -26 -32 -26 -42
0 -12 9 -5 26 20 23 34 29 38 62 35 29 -2 41 -10 64 -43 56 -81 18 -195 -65
-195 -44 0 -63 15 -90 72 l-23 47 -264 -120 c-146 -67 -294 -134 -330 -149
-36 -15 -112 -50 -170 -77 -58 -28 -116 -54 -130 -58 -14 -4 -47 -18 -73 -32
-55 -27 -54 -27 -185 29 -62 27 -91 45 -88 54 3 7 10 32 16 56 14 52 147 384
165 414 13 20 16 20 94 8 198 -32 428 -27 626 12 120 24 298 80 374 118 l66
34 33 -29 c26 -23 42 -29 80 -29 83 0 148 63 159 153 l5 42 -27 -52 c-68 -133
-203 -131 -267 2 l-19 40 4 -35 c2 -19 7 -43 11 -52 10 -22 -7 -29 -159 -69
-192 -50 -293 -63 -500 -63 -195 0 -415 25 -415 47 0 18 130 239 218 370 72
107 89 127 106 123 12 -3 85 -11 163 -17 307 -26 623 30 888 156 131 62 146
80 33 40 -231 -82 -428 -116 -665 -116 -163 -1 -349 16 -358 32 -12 18 232
288 388 431 l109 100 61 -6 c80 -9 306 9 429 34 53 11 136 34 185 51 89 31
277 118 270 125 -2 2 -32 -7 -67 -21 -93 -37 -287 -83 -417 -100 -136 -18
-368 -21 -357 -4 12 19 198 154 323 233 121 76 358 204 459 246 49 21 54 21
71 6 29 -27 76 -20 105 15 14 17 26 36 26 42 0 7 -6 3 -12 -8 -26 -48 -90 -61
-123 -25 -11 12 -22 17 -29 11 -6 -4 -49 -21 -96 -36 -238 -77 -506 -207 -712
-347 -32 -21 -58 -35 -58 -30 0 16 104 189 164 272 33 47 110 136 170 198 60
61 107 112 105 112 -2 0 -34 -22 -70 -49z m-2714 -2547 c19 -8 45 -55 45 -83
0 -32 -21 -70 -42 -77 -73 -23 -119 79 -63 140 25 27 33 30 60 20z"/>
</g>
</svg>
